<svg xmlns="http://www.w3.org/2000/svg" height="300" width="300"><g fill-rule="evenodd" clip-rule="evenodd"><path fill="#f8e726" d="M0 0h300v300H0z"/><path d="M190.886 222.785v24.557c.253 2.278.506 3.797 1.013 4.557 3.29 7.341 14.936 6.582 21.519 2.278l-3.038-6.076c-2.279.76-4.81 2.532-7.848 1.772-2.785-.76-2.532-4.05-2.532-7.341v-20h18.481l14.937 33.924c.253 1.519-3.038 7.341-3.798 8.354-5.063 7.342-9.873 4.304-14.177 3.291l-2.025 7.342c7.848 3.038 16.202 1.772 20.76-3.038 4.05-4.557 6.328-10.633 9.113-17.721l14.43-39.494h-9.62l-10.126 30.38c-1.013-1.013-8.861-20.507-10.127-23.798-2.025-4.557-4.81-6.329-10.633-6.582h-16.962v-12.152c-2.025.506-7.595 2.025-9.114 2.785v9.114h-7.342v7.341zm-18.48-199.747c46.835 0 77.72 37.721 68.86 84.304-8.86 46.582-54.177 84.304-101.266 84.304-47.089 0-77.975-37.722-68.86-84.304C80 60.759 125.315 23.038 172.404 23.038zm22.278 10.886c29.113 10.127 45.822 39.24 39.493 73.418-7.595 40-44.304 72.658-84.05 76.962-3.292 0-3.292-1.772-3.292-4.557.254-5.57.254-11.14.507-16.709 0-.76-.253-1.013-.507-1.266-4.05-.506-8.1-1.266-12.151-2.531-4.304-1.773-8.608-4.051-12.912-6.836-2.025-1.013-1.772-5.57-1.772-7.342.253-3.29 2.785-10.886 6.582-11.139 4.557-.253 6.836 2.279 11.393 4.557 8.1 3.797 19.24 6.076 27.848 2.025 4.05-2.531 5.063-5.822 3.038-9.873-3.291-6.836-18.988-12.405-26.076-15.95-16.962-7.341-26.582-22.025-23.544-39.493 2.278-12.912 14.43-22.785 27.088-24.557v-6.076c-15.696 4.557-27.595 13.418-38.228 24.05-15.443 15.19-24.557 34.178-25.316 58.735 1.012 29.62 16.709 42.785 32.911 52.658-27.848-10.633-43.797-39.24-37.468-72.658 7.848-41.013 46.329-74.43 87.342-77.215 1.519 1.012 1.772 1.012 2.531 3.29-.253 5.064-.76 10.38-1.012 15.444 8.1 1.519 15.696 4.05 22.025 9.114.253 11.898-8.608 16.709-12.152 14.936.253-.506-13.418-4.303-16.203-5.063-3.544-.506-6.835-.253-10.126 1.266-4.05 1.772-5.823 4.81-4.05 9.114 1.518 3.291 4.303 5.316 7.341 7.342 8.608 4.557 16.962 9.367 25.57 13.924 7.341 4.05 12.658 9.62 15.949 15.949 2.532 6.33 3.038 12.911 1.519 19.494-1.772 5.316-3.797 10.126-6.835 13.164a27.014 27.014 0 01-8.608 6.836c-4.304 2.278-8.608 4.304-13.165 5.063-.253 2.785-.253 5.57-.506 8.101.253.253.76 0 1.013 0 9.62-3.038 18.228-8.607 26.329-14.683 10.633-9.367 20.76-19.24 26.076-32.152 3.544-7.089 6.329-15.19 7.595-24.304 3.544-25.57-6.076-50.127-34.177-63.038zM86.835 215.19v-9.114c0-3.291 2.785-8.101 6.836-10.127 3.797-1.772 10.633-1.772 14.177.507l-1.772 7.088c-10.38-2.278-10.38-.253-10.38 11.393h11.393l-3.038 7.088h-8.355v33.924c-1.772.254-7.595.254-9.114 0v-33.67h-4.557l-2.784-7.09zm61.013 21.772c.506 24.304 26.836 23.038 33.924 16.456-.253-1.013-2.025-5.57-2.785-6.076-4.81 2.025-9.62 4.304-15.443 1.266-9.114-4.557-8.354-21.52.76-25.823 3.544-1.52 8.607-1.52 12.152 0 1.266.506 2.278 1.266 3.29 1.772v-7.848c-5.316-2.025-9.366-3.544-16.202-2.025-10.126 2.531-15.95 11.898-15.696 22.278zm-96.202-5.316c.76-5.57 2.784-10.127 8.607-10.127 5.57 0 8.355 4.557 8.608 10.38zm25.316 21.772l-2.532-6.076c-2.278.76-3.797 1.772-7.088 2.278-8.101 1.266-15.443-2.278-15.696-11.645h26.329c0-9.367-1.52-20-11.9-23.038-4.81-1.52-10.632-1.013-14.43 1.266-14.43 8.607-13.67 41.265 11.393 41.012 5.063.253 11.14-1.266 13.924-3.797zm39.494-21.772c.506-5.57 3.038-10.127 8.86-10.38 5.57 0 8.355 4.81 8.355 10.38zm-9.114 5.822c1.012 15.19 12.911 22.532 27.342 18.988 3.29-.76 4.81-2.026 7.088-2.785l-2.531-6.33c-3.798 1.013-8.355 4.305-15.19 2.026-4.304-1.519-7.342-5.316-7.595-11.14h26.582c0-12.151-3.544-23.797-17.468-24.05-13.671 0-18.988 11.393-18.228 23.291z" fill="#010101"/></g></svg>