<svg xmlns="http://www.w3.org/2000/svg" width="814" height="250" viewBox="0 0 814 250">
    <path fill="#002F86" d="M446.1 87.8h-28.8c-2.7 0-5.3 1.4-6.9 3.6L370.7 150l-16.8-56.2c-1.1-3.5-4.3-5.9-8-5.9h-28.3c-3.4 0-5.8 3.4-4.7 6.5l31.8 93.1-29.8 42.1c-2.3 3.3 0 7.9 4 7.9h28.8c2.7 0 5.2-1.3 6.9-3.6l95.6-138.2c2.4-3.4 0-7.9-4.1-7.9m-192.6 55.8c-2.7 16.4-15.7 27.4-32.3 27.4-8.3 0-15-2.7-19.2-7.8-4.3-5-5.8-12.2-4.5-20.1 2.6-16.3 15.8-27.6 32.1-27.6 8.2 0 14.7 2.7 19.1 7.9 4.3 5.2 6.1 12.4 4.8 20.2m39.9-55.8h-28.7c-2.4 0-4.6 1.7-4.9 4.3l-1.3 8-2-2.9c-6.2-9.1-20.1-12-33.8-12-31.7 0-58.7 24-64 57.6-2.7 16.8 1.2 32.9 10.7 44.1 8.7 10.3 21.2 14.6 36.1 14.6 25.5 0 39.7-16.4 39.7-16.4l-1.3 8c-.4 3.1 1.9 5.8 4.9 5.8h25.8c4.1 0 7.5-2.9 8.2-7l15.5-98.1c.6-3.2-1.8-6-4.9-6m-172 .7C118.1 110 101.7 110 85.8 110h-9.1L83 69.8c.3-2.4 2.5-4.3 4.9-4.3H92c10.8 0 21 0 26.3 6.1 3.3 3.9 4.3 9.4 3.1 16.9m-6.9-56H54.7c-4.1 0-7.5 2.9-8.2 7L22.3 193c-.4 3.1 1.9 5.8 4.9 5.8h28.6c4 0 7.5-2.9 8.2-7l6.5-41.4c.7-4 4.1-7 8.2-7h19c39.4 0 62.2-19.1 68.1-56.9 2.7-16.5.1-29.6-7.6-38.6-8.5-10.2-23.7-15.4-43.7-15.4"/>
    <path fill="#009CDE" d="M754.3 36.6L729.7 193c-.4 3.1 1.9 5.8 4.9 5.8h24.7c4 0 7.5-2.9 8.2-7l24.2-153.5c.4-3.1-1.9-5.8-4.9-5.8h-27.6c-2.4 0-4.6 1.7-4.9 4.1m-73.8 107c-2.7 16.4-15.7 27.4-32.3 27.4-8.3 0-15-2.7-19.2-7.8-4.3-5-5.8-12.2-4.5-20.1 2.6-16.3 15.8-27.6 32.1-27.6 8.2 0 14.7 2.7 19.1 7.9 4.4 5.2 6.1 12.4 4.8 20.2m39.9-55.8h-28.6c-2.4 0-4.6 1.7-4.9 4.3l-1.3 8-2-2.9c-6.2-9.1-20.1-12-33.8-12-31.7 0-58.7 24-64 57.6-2.7 16.8 1.2 32.9 10.7 44.1 8.7 10.3 21.2 14.6 36.1 14.6 25.5 0 39.7-16.4 39.7-16.4l-1.3 8c-.4 3.1 1.9 5.8 4.9 5.8h25.7c4.1 0 7.5-2.9 8.2-7l15.5-98.1c.6-3.2-1.8-6-4.9-6m-172 .7c-3.3 21.5-19.6 21.5-35.6 21.5h-9.1l6.3-40.2c.3-2.4 2.5-4.3 4.9-4.3h4.1c10.8 0 21 0 26.3 6.1 3.3 3.9 4.3 9.4 3.1 16.9m-6.9-56h-59.8c-4.1 0-7.5 2.9-8.2 7L449.3 193c-.4 3.1 1.9 5.8 4.9 5.8h30.7c2.8 0 5.3-2.1 5.8-4.9l6.9-43.6c.7-4 4.1-7 8.2-7h19c39.4 0 62.2-19.1 68.1-56.9 2.7-16.5.1-29.6-7.6-38.6-8.6-10.1-23.8-15.3-43.8-15.3"/>
</svg>
