<svg xmlns="http://www.w3.org/2000/svg" height="300" width="299.246" xml:space="preserve" y="0" x="0" id="Capa_1" version="1.1"><style id="style10" type="text/css">.st9{fill:#4a6985}.st10{fill:#c6d1dc}.st13{fill:#133f6b}.st16{fill:#113c64}.st17{fill:#1c477d}.st18{fill:#1a467a}.st19{fill:#174476}.st21{fill:#164273}.st22{fill:#164271}.st25{fill:#143659}.st31{fill:#14314f}.st34{fill:#174475}.st35{fill:#154272}.st36{fill:#16406e}.st37{fill:#103e68}.st41{fill:#fab619}.st42{fill:#123a61}.st44{fill:#123d67}.st46{fill:#fff}.st48{fill:#1c4980}.st49{fill:#1e4a83}.st50{fill:#1d4c86}.st52{fill:#1e4c87}.st53{fill:#1e4d8a}.st56{fill:#1f4e8b}.st57{fill:#16416f}.st58{fill:#204f8c}.st64{fill:#225495}.st65{fill:#205292}.st67{fill:#28569b}.st80{fill:#23559a}</style><g transform="matrix(25.14669 0 0 25.14669 -134.786 -47.024)" id="g309"><g id="fiKfwi.tif_1_"><g id="g306"><path id="path12" d="M5.45 8.78c-.05-.13-.01-.28-.08-.41V8.2c.02-.08.02-.15 0-.23v-.09c.03-.02.05-.03.09-.01.1.22.2.44.29.67-.01.15.02.28.18.35.19.07.25.25.36.39v.04c-.02.07-.03.13 0 .2.05.07.13.11.19.18.33.45.75.8 1.2 1.12.86.62 1.83.98 2.88 1.1 1.57.17 3.02-.19 4.31-1.12.96-.69 1.67-1.58 2.14-2.67.05-.11.08-.22.13-.32.02-.05.04-.12.12-.11v.29a.34.34 0 000 .2v.17c-.06.06-.01.14-.06.2-.12.11-.17.27-.24.4a6.326 6.326 0 01-2.55 2.5c-.77.42-1.6.68-2.47.78-1.12.12-2.19-.05-3.22-.49-.83-.35-1.56-.85-2.18-1.5-.4-.39-.73-.84-1-1.34-.03-.04-.04-.09-.09-.13z" fill="#13385c"/><path id="path14" d="M17.25 7.71c-.1.06-.1.17-.14.26-.31.8-.75 1.5-1.35 2.11-.51.53-1.09.96-1.75 1.28-.61.3-1.25.48-1.92.58-.4.06-.81.07-1.21.05-.71-.05-1.39-.2-2.05-.48-.63-.27-1.2-.64-1.72-1.09-.21-.18-.4-.39-.59-.59a.353.353 0 01-.08-.13c.05-.04.1-.03.16-.03.05.01.08.05.11.09.7.78 1.54 1.36 2.53 1.7.58.2 1.18.31 1.8.33.74.01 1.46-.07 2.17-.31.76-.26 1.45-.65 2.05-1.19.88-.78 1.49-1.72 1.82-2.85.02-.07.03-.17.13-.19.02.03-.02.07.03.09v.14a.34.34 0 000 .2c.01.01.01.02.01.03z" fill="#14395f"/><path id="path16" d="M5.92 8.93c-.18-.07-.23-.2-.2-.38.02-.12.1-.18.21-.21.1-.02.19.02.27.08.04.03.07.06.13.06h.3c.2.03.21-.14.27-.25.03-.07.07-.13.1-.2.04-.11.02-.13-.1-.13-.4-.01-.79 0-1.19 0-.12 0-.23 0-.34-.04v-.17c.06-.05.12-.04.19-.04.29 0 .58.01.87-.01-.09-.19-.23-.35-.37-.49-.09-.09-.23-.03-.35-.04-.1-.01-.2.03-.29-.04 0-.06-.01-.12.03-.17.05-.05.11-.04.16-.04.12 0 .25.01.37 0 .15-.01.26.04.34.16.14.18.3.34.43.53.03.04.07.07.12.09.33.01.66 0 1 0 .07 0 .14-.01.21.03.04.16 0 .22-.15.23-.18 0-.36-.02-.54 0-.06.02-.09.08-.12.14l-.24.48c-.05.16-.16.23-.34.22a1.61 1.61 0 00-.38 0c-.04.03-.06.09-.09.12-.09.1-.19.09-.3.07z" fill="#fab617"/><path id="path18" d="M5.43 7.07c.11 0 .21 0 .32.01.09.16.12.34.16.52.01.03 0 .06-.03.07h-.34c-.1.01-.17-.01-.15-.14 0-.02 0-.04-.01-.05v-.17c.05-.08.01-.17.05-.24z" fill="#123c63"/><path id="path20" d="M5.37 7.85h1.74c-.07.15-.13.29-.21.41-.08-.02-.11-.09-.13-.16-.05-.15-.15-.2-.31-.18-.04.01-.09 0-.13 0h-.59c-.1 0-.2.02-.29-.04h-.09c.01-.01.01-.02.01-.03z" fill="#18416e"/><path id="path22" d="M5.37 7.48c.01.18.13.19.28.17.08-.01.16 0 .24 0 .2-.08.41-.07.61 0-.05.03-.05.03-.11.03H5.36c.01-.07.01-.14.01-.2z" fill="#526e86"/><path id="path24" d="M11.16 1.88h.29c.01.02.01.03-.01.04-.09.04-.18.04-.27 0-.01 0-.02-.02-.01-.04z" fill="#8aa1bb"/><path id="path26" d="M11.45 13.79h-.29c-.01-.02-.01-.03.01-.04.09-.04.18-.04.27 0 .02.01.02.02.01.04z" fill="#8295a3"/><path id="path28" d="M5.37 7.97c.04.08.05.15 0 .23v-.23z" fill="#4d6a88"/><path id="path30" d="M17.25 7.68c-.05-.07-.05-.14 0-.2v.2z" class="st9"/><path id="path32" d="M17.25 8.2c-.05-.07-.05-.14 0-.2v.2z" class="st9"/><path id="path34" d="M11.45 1.91v-.02h.2v.03c-.06.05-.13.05-.2-.01z" class="st10"/><path id="path36" d="M11.16 1.88v.02c-.07.06-.13.06-.2 0v-.03c.07.01.13.01.2.01z" class="st10"/><path id="path38" d="M11.45 13.79v-.02c.07-.06.13-.06.2 0v.03c-.06-.01-.13-.01-.2-.01z" fill="#c3ccd3"/><path id="path40" d="M11.16 13.77v.03h-.17v-.02c.05-.07.11-.07.17-.01z" fill="#bfc8d1"/><path id="path42" d="M16.23 4.55c.16.21.31.44.4.7.08 1.02-.08 2-.55 2.92a5.345 5.345 0 01-2.28 2.33c-.92.49-1.9.7-2.93.63-.94-.06-1.81-.36-2.6-.89-.06-.04-.12-.07-.15-.13 0-.11 0-.22.08-.32.06-.02.1.02.14.05.76.53 1.59.84 2.51.92.88.07 1.73-.08 2.54-.46.59-.28 1.1-.65 1.55-1.12.06-.04.13-.06.17-.13.04-.1.09-.18.15-.26.59-.76.92-1.62 1.01-2.58.05-.49.03-.99-.08-1.48-.01-.05-.07-.14.04-.18z" class="st13"/><path id="path44" d="M8.15 10.11c.62.44 1.31.73 2.05.89.48.1.98.12 1.46.09.69-.05 1.35-.23 1.97-.54.43-.22.83-.49 1.2-.82.53-.47.94-1.03 1.25-1.66.27-.54.43-1.11.49-1.71.04-.32.01-.65.03-.97 0-.05-.02-.11.03-.15.12.25.25.49.31.75-.04.3-.06.61-.13.91-.22 1-.66 1.89-1.36 2.65-.95 1.04-2.13 1.64-3.52 1.82-1.08.14-2.12-.03-3.11-.51-.25-.12-.5-.24-.73-.41-.07-.05-.18-.02-.22-.11.14-.03.21-.13.28-.23z" fill="#133d68"/><path id="path46" d="M17.21 7.25c-.06.06-.08.14-.1.22-.22.78-.59 1.48-1.1 2.11-.4.5-.86.91-1.39 1.27-.66.44-1.38.72-2.15.89-.58.13-1.18.13-1.77.09-.85-.06-1.66-.31-2.41-.73-.63-.35-1.19-.8-1.65-1.36-.01-.02-.02-.03-.03-.04.02-.07.09-.11.16-.12.07.01.11.07.16.12A5.4 5.4 0 008.66 11c.65.32 1.33.51 2.05.58 1.1.11 2.16-.09 3.15-.58a5.757 5.757 0 002.5-2.36c.31-.54.52-1.12.66-1.72.02-.07 0-.16.11-.17.06.16.07.33.08.5z" fill="#133a61"/><path id="path48" d="M7.89 10.35c.22.03.37.19.55.29.61.34 1.26.58 1.95.69 1.15.17 2.25.01 3.3-.49.51-.24.97-.55 1.39-.94.89-.82 1.45-1.83 1.71-3.01.06-.26.08-.53.11-.8 0-.04.02-.07.05-.1l.12.4c-.05.09-.04.19-.06.28-.18 1.07-.61 2.03-1.33 2.85-.98 1.11-2.2 1.79-3.68 1.98-1.01.13-1.99 0-2.94-.38-.64-.26-1.21-.63-1.73-1.1-.18-.15-.35-.35-.53-.52-.04-.14-.09-.27-.23-.33-.11-.09-.17-.23-.25-.35-.02-.03-.03-.07.01-.11.05-.01.1 0 .15 0 .09.07.13.18.19.27.33.46.72.86 1.17 1.21.03.05.05.1.05.16z" class="st16"/><path id="path50" d="M10.96 1.91h.69c.36.03.73.06 1.08.17.01.04.05.05.08.06 1.21.54 1.96 1.46 2.27 2.75.11.47.11.95.06 1.42-.01.06-.01.13-.07.17-.06.02-.11.03-.15-.03.22-1.2-.09-2.26-.88-3.18-.65-.75-1.48-1.15-2.45-1.25-1.01-.09-1.92.21-2.7.86-.79.65-1.24 1.49-1.34 2.51-.09.76.09 1.47.43 2.14.03.06.12.07.11.15-.38 0-.75-.01-1.13-.01-.05 0-.11.02-.15-.02.1-.08.21-.04.32-.04h.56c.08 0 .1-.02.06-.1-.1-.22-.2-.45-.26-.69-.35-1.35-.09-2.58.81-3.65.35-.42.79-.74 1.28-.98.03-.01.05-.02.07-.05.42-.14.86-.2 1.31-.23z" class="st17"/><path id="path52" d="M6.81 9.47c.21.18.38.41.59.59.44.37.9.7 1.43.94.5.23 1.02.39 1.57.47.39.05.79.08 1.19.05.55-.03 1.07-.14 1.59-.31.66-.23 1.26-.57 1.79-1.02.63-.53 1.14-1.16 1.5-1.9.26-.54.44-1.12.52-1.72.01-.06 0-.13.08-.15.01.12.07.23.06.35-.08.05-.07.14-.08.21-.17.79-.48 1.52-.95 2.18-.52.74-1.18 1.33-1.97 1.77a5.934 5.934 0 01-3.4.72c-.77-.07-1.5-.28-2.18-.64a5.96 5.96 0 01-1.25-.87c-.2-.19-.34-.39-.54-.55-.02-.06-.01-.1.05-.12z" class="st16"/><path id="path54" d="M15.07 6.47c.09-.4.08-.8.04-1.2-.05-.51-.22-.98-.46-1.43-.26-.48-.63-.88-1.07-1.21-.26-.2-.54-.36-.85-.49-.05-.02-.07-.04 0-.06.44.1.86.25 1.26.46.05.03.11.06.16.09 0 .05.04.06.06.09.73.72 1.13 1.59 1.25 2.61.04.36.02.72-.04 1.08-.01.07-.02.14-.08.2-.12.02-.2-.05-.27-.14z" class="st18"/><path id="path56" d="M15.33 6.62c.13-.37.14-.76.11-1.14-.02-.36-.1-.72-.22-1.07-.21-.63-.54-1.17-1.01-1.64-.03-.03-.13-.06-.06-.14.29.19.61.33.86.58.2.29.36.6.48.93.18.47.28.96.28 1.47 0 .4-.02.79-.11 1.17-.02.08-.03.17-.11.23-.02.02-.04-.01-.06-.04-.04-.12-.14-.22-.16-.35z" class="st19"/><path id="path58" d="M16.23 4.55c-.07.06-.01.12 0 .17.05.29.08.59.09.89.01.56-.05 1.1-.22 1.63-.19.6-.47 1.16-.87 1.65-.05.07-.06.15-.11.22-.03-.08-.05-.17-.12-.23 0-.08.06-.14.1-.2.52-.69.84-1.46.96-2.31.09-.68.03-1.35-.16-2.01-.03-.09-.08-.18-.02-.27.14.14.25.29.35.46z" fill="#14406d"/><path id="path60" d="M15.54 7.01c.13-.2.13-.43.17-.65.06-.34.05-.69.03-1.04-.04-.51-.17-1-.4-1.46-.09-.18-.19-.36-.29-.53-.02-.04-.04-.08-.03-.12.16.15.33.29.49.44.12.32.26.63.34.97a4.69 4.69 0 01-.25 2.98c-.03.08-.06.17-.17.17-.06-.18.02-.34.06-.5.03-.08-.02-.19.05-.26z" class="st21"/><path id="path62" d="M15.42 7.77c.15-.09.17-.27.22-.41.16-.41.24-.84.27-1.28.06-.79-.07-1.53-.39-2.25-.02-.05-.08-.12-.02-.18.08.06.14.12.19.2.14.33.24.68.3 1.04.11.59.1 1.18-.01 1.77-.16.82-.51 1.54-1.04 2.19-.02.02-.03.05-.06.06-.09.03-.17.03-.26.01-.1-.08-.01-.14.03-.19.11-.13.22-.27.32-.41.08-.11.14-.24.22-.36.13-.02.15-.14.23-.19z" class="st22"/><path id="path64" d="M14.9 8.9c.05-.16.18-.26.26-.39.36-.52.61-1.09.76-1.71.08-.34.12-.68.12-1.02.01-.26 0-.53-.06-.8-.08-.34-.14-.69-.28-1.01-.01-.04-.04-.07 0-.11.06.08.12.15.18.23.01.19.09.36.13.55.1.44.15.89.13 1.34-.04.67-.2 1.31-.49 1.91-.14.28-.3.56-.5.81-.05.06-.09.14-.13.2-.04.03-.08.03-.12 0z" class="st22"/><path id="path66" d="M16.99 9.54c-.06.27-.16.53-.29.78-.14.15-.27.31-.42.46-.92.9-2.01 1.52-3.26 1.85-.71.18-1.42.26-2.15.22-.93-.05-1.83-.28-2.67-.69a6.94 6.94 0 01-1.98-1.41c-.05-.05-.12-.1-.14-.18.02-.09.09-.13.16-.17.07-.01.12.04.16.09.51.54 1.12.97 1.77 1.31.46.24.95.42 1.46.54.56.14 1.14.22 1.72.21a6.938 6.938 0 004.18-1.53c.49-.38.89-.84 1.25-1.34a.54.54 0 01.14-.16c.03-.02.07-.04.07.02z" fill="#153557"/><path id="path68" d="M6.09 10.55c.41.48.9.86 1.43 1.19.45.28.92.51 1.42.68.46.16.94.27 1.43.34.35.05.71.06 1.06.05.63-.01 1.24-.12 1.84-.29.87-.25 1.66-.67 2.37-1.23.33-.26.64-.54.91-.86.04-.04.06-.12.15-.11-.12.29-.27.56-.45.81-.15.09-.26.22-.4.33-1.04.81-2.2 1.33-3.5 1.53-1.5.23-2.92-.01-4.28-.66a7.25 7.25 0 01-1.42-.9c-.03-.02-.05-.04-.09-.04-.21-.26-.38-.54-.52-.84.01-.02.03-.02.05 0z" fill="#143454"/><path id="path70" d="M5.45 8.78c.07-.02.08.04.09.07.33.61.75 1.15 1.25 1.63.37.35.79.64 1.23.9.66.38 1.37.64 2.13.77.51.08 1.01.12 1.53.08.55-.04 1.08-.15 1.6-.31.45-.14.87-.34 1.27-.58.49-.29.94-.63 1.34-1.04.47-.48.85-1.02 1.15-1.61.02-.05.05-.09.08-.14.03-.04.05-.02.05.02 0 .14-.02.27-.06.4-.37.63-.8 1.21-1.34 1.7-.64.58-1.37 1.02-2.17 1.32-.58.22-1.18.36-1.8.41-1.21.11-2.35-.12-3.44-.64-.73-.35-1.38-.8-1.93-1.38-.06-.06-.11-.12-.18-.16-.07-.06-.12-.17-.25-.18-.07-.01-.13.05-.2.02-.08-.16-.13-.34-.18-.51.01-.1.01-.2-.07-.28-.04-.16-.1-.32-.1-.49z" class="st25"/><path id="path72" d="M7.42 12.32c-.22-.17-.41-.36-.58-.58.06-.06.06-.07.16-.01.22.14.42.29.65.41.91.51 1.89.82 2.93.92a7.29 7.29 0 004.1-.81c.39-.2.76-.44 1.11-.71.11-.08.11-.08.19-.04-.17.22-.36.41-.55.62-.25.13-.48.29-.73.41-.81.4-1.66.66-2.56.76-.39.04-.79.07-1.18.05-.93-.05-1.83-.25-2.69-.62-.3-.12-.57-.28-.85-.4z" fill="#143251"/><path id="path74" d="M16.99 9.54c-.08-.03-.09.05-.12.08-.28.38-.56.74-.91 1.06a7.032 7.032 0 01-3.01 1.66c-.4.11-.81.17-1.23.2-.21.01-.41.03-.62.02a7.35 7.35 0 01-1.73-.28c-.37-.09-.74-.23-1.09-.4-.46-.22-.88-.5-1.28-.81-.24-.19-.46-.39-.67-.61-.03-.03-.05-.06-.1-.06-.03-.05-.01-.1.02-.15.07-.01.1.05.14.09a6.65 6.65 0 002.28 1.57c.63.27 1.29.43 1.97.49.92.07 1.83-.01 2.71-.31.94-.32 1.77-.8 2.49-1.49.41-.4.78-.83 1.08-1.32.02-.04.05-.09.09-.11.05-.03.09-.02.06.05-.02.11-.05.21-.08.32z" fill="#153659"/><path id="path76" d="M8.73 13.18c-.28-.1-.52-.27-.76-.43-.04-.02-.09-.03-.11-.09 0-.07.05-.06.09-.05.05.01.09.03.13.05.03.01.05.02.07.04.04.03.09.04.14.06.02.01.05.02.07.03.04.02.09.04.14.06l.09.03.15.06c.08.03.17.06.25.08.06.03.13.04.2.06l.12.03c.07.03.14.05.22.05.01 0 .03.01.04.01.13.04.27.06.41.08.02 0 .03.01.05.01.83.14 1.66.13 2.49 0 .02-.01.03-.01.05-.01.14-.01.29-.04.43-.08a9.81 9.81 0 001.6-.57c.11-.05.22-.13.33-.18.05-.02.11-.08.16.01-.29.21-.58.43-.9.6-.02.01-.03.01-.05.01-.72.3-1.48.47-2.26.53-1.04.08-2.06-.04-3.05-.37-.04-.01-.07-.03-.1-.02z" fill="#15304e"/><path id="path78" d="M15.97 11.5c-.08-.04-.11.04-.16.07-.85.66-1.8 1.12-2.85 1.37a7.385 7.385 0 01-5.28-.73c-.24-.14-.47-.29-.71-.45-.04-.02-.08-.09-.13-.02-.11-.11-.21-.22-.29-.35.04-.05.07-.02.11.01.56.46 1.18.82 1.84 1.09.55.23 1.12.38 1.72.46.4.05.79.1 1.19.08.96-.04 1.89-.23 2.78-.63.52-.23 1.01-.52 1.47-.86.14-.1.28-.22.41-.34.05-.04.1-.09.18-.09-.1.14-.19.26-.28.39z" fill="#133352"/><path id="path80" d="M8.73 13.18c.12-.04.23.03.34.06.46.12.93.22 1.41.27.3.03.59.06.89.05.81-.03 1.6-.14 2.37-.41.13-.04.25-.09.39-.1-.47.31-1.01.48-1.55.6-.3.07-.6.11-.91.12h-.66c-.75-.04-1.47-.22-2.16-.53-.06-.02-.09-.04-.12-.06z" fill="#142f4c"/><path id="path82" d="M17.07 9.22c-.03-.09-.06-.01-.07.01-.1.15-.19.3-.3.44-.45.61-.98 1.13-1.59 1.57-.7.49-1.46.83-2.29 1.03-.7.17-1.42.2-2.14.15-.92-.06-1.78-.32-2.59-.76-.47-.25-.89-.56-1.29-.91-.18-.16-.34-.34-.53-.49-.02-.02-.02-.03-.01-.06.07 0 .1.05.14.09.59.64 1.29 1.13 2.07 1.49.62.29 1.27.48 1.96.57.39.05.78.07 1.17.05a6.738 6.738 0 003.35-1.11c.49-.32.93-.71 1.32-1.16.27-.32.52-.64.72-1 .03-.06.08-.11.14-.14-.01.08-.02.15-.06.23z" class="st25"/><path id="path84" d="M8.15 12.72c-.02 0-.05-.01-.06-.03-.14-.06-.28-.13-.44-.17-.08-.07-.17-.11-.23-.2.06-.06.1 0 .14.02.45.23.91.44 1.39.59.47.15.95.26 1.45.31.3.03.6.06.91.05.98-.01 1.93-.2 2.83-.58.39-.16.77-.35 1.13-.58.04-.03.09-.09.15-.03-.1.12-.22.22-.35.31-.09-.05-.16.03-.22.06-.51.28-1.06.48-1.61.64l-.25.06-.43.09c-.86.14-1.72.15-2.58 0-.14-.03-.29-.05-.43-.09-.08-.02-.16-.03-.23-.06-.04 0-.09.01-.12-.03-.07-.03-.14-.03-.2-.06-.1.01-.19-.02-.27-.07-.05-.03-.1-.03-.14-.06-.03 0-.07.01-.09-.03-.05-.03-.1-.03-.14-.06-.02 0-.05-.01-.06-.03-.05-.02-.1-.03-.15-.05z" class="st31"/><path id="path86" d="M6.26 10.2c0 .02.01.04.01.06l-.03.15c-.04.06-.09.1-.15.14h-.06c-.1-.15-.17-.32-.23-.49.22-.1.34-.07.46.14z" fill="#f9b617"/><path id="path88" d="M7.65 12.52c.08-.05.14.01.2.04.08.04.17.06.23.13-.08.03-.15-.11-.23-.02-.07-.04-.13-.1-.2-.15z" class="st31"/><path id="path90" d="M5.55 9.27c.12.03.15.13.07.28a.681.681 0 01-.07-.28z" fill="#e5ab2c"/><path id="path92" d="M9.65 2.14c.02.08-.05.08-.09.09-.39.21-.75.45-1.06.77-.56.57-.93 1.26-1.07 2.05-.13.79-.05 1.56.29 2.29.01.02.02.04.03.07.02.08.13.17.08.23-.05.04-.17.01-.26.01h-.06a.474.474 0 01-.12-.19c-.64-1.61-.44-3.1.64-4.45.05-.06.11-.12.14-.2.46-.31.95-.53 1.48-.67z" class="st18"/><path id="path94" d="M8.17 2.81c.07.04.01.07-.01.1-.28.33-.54.68-.71 1.08-.17.39-.3.79-.35 1.21-.09.75 0 1.48.29 2.18.04.09.08.18.11.26h-.38c-.14-.3-.24-.63-.31-.96-.03-.11-.04-.22-.09-.32.05-.16.04-.31-.01-.46.03-.42.05-.85.15-1.26.11-.44.28-.84.5-1.23.25-.23.51-.44.81-.6z" class="st34"/><path id="path96" d="M7.36 3.41c0 .16-.11.28-.18.42-.22.51-.37 1.05-.4 1.61-.01.16.02.33-.06.48a.307.307 0 01-.24-.08c-.06-.26 0-.52.02-.78.04-.36.16-.69.26-1.03.19-.22.37-.45.6-.62z" class="st35"/><path id="path98" d="M6.73 7.56l-.4-.49c-.09-.3-.14-.61-.15-.93 0-.18-.05-.37-.05-.55 0-.02 0-.04.01-.06.14-.18.08-.33-.07-.47.1-.24.25-.45.4-.66.09.02.06.1.05.15-.07.32-.11.64-.14.97-.01.11-.02.22.01.34.01.04-.01.07-.03.1-.1.18-.08.28.09.4.01.02.03.03.04.04.04.05.05.1.06.16.06.27.13.54.21.81.03.07.08.15-.03.19z" class="st36"/><path id="path100" d="M6.14 5.56c.05.03.04.08.04.13.01.13-.02.25.05.38.05.09-.02.2 0 .31.03.21.07.42.12.62.01.03 0 .05-.02.06-.1-.16-.24-.2-.42-.18-.15.01-.31 0-.46 0 0-.01 0-.02.01-.03.1-.08.22-.03.33-.04.17-.01.17-.01.14-.18-.04-.24-.05-.5-.08-.76-.01-.09-.02-.19.03-.27.08-.06.17-.07.26-.04z" class="st13"/><path id="path102" d="M6.38 5.88c-.1-.09-.07-.22-.06-.33.04-.35.06-.7.16-1.03.02-.04.03-.08-.01-.12.09-.13.18-.26.29-.38.06.05.02.11 0 .16-.19.54-.28 1.1-.26 1.67-.03.04-.06.06-.12.03z" class="st36"/><path id="path104" d="M5.89 5.59c-.01.36.04.72.09 1.08.02.2.03.2-.18.2-.06-.03-.06-.08-.07-.14-.02-.14-.04-.29-.07-.43.01-.11.02-.21.01-.32.05-.14.09-.29.16-.42.03-.02.06-.01.06.03z" class="st37"/><path id="path106" d="M5.89 5.59l-.06-.03c.05-.18.13-.34.23-.5.24.1.27.3.07.5a.47.47 0 01-.24.03z" fill="#f9b619"/><path id="path108" d="M5.69 6.29c.05.15.05.31.08.47.01.03.02.07.03.11h-.34c0-.17.06-.33.09-.49.05-.03.06-.11.14-.09z" fill="#113d66"/><path id="path110" d="M5.69 6.29c-.05.03-.07.1-.13.09.03-.14.07-.27.12-.4.06.09.04.2.01.31z" fill="#f1b120"/><path id="path112" d="M6.81 9.47c-.01.04-.03.08-.05.12-.05.04-.1.08-.15.11h-.17a.581.581 0 01-.18-.17.34.34 0 010-.2c.01-.01.01-.01.01-.02.02-.1.09-.14.18-.17.05-.02.09 0 .13.01.15.05.22.16.23.32z" class="st41"/><path id="path114" d="M5.45 7.88h.29c.1.12.13.27.19.4.01.03.01.07-.02.09-.09.04-.15.1-.2.18-.07-.17-.15-.34-.22-.52a.241.241 0 01-.04-.15z" class="st42"/><path id="path116" d="M6.44 9.16c-.07.03-.12.09-.17.15-.07-.1-.15-.19-.21-.29-.04-.06-.1-.05-.14-.09.11.01.21-.02.29-.09.11.08.17.2.23.32z" class="st42"/><path id="path118" d="M6.26 9.33v.2c-.04-.06-.04-.13 0-.2z" class="st42"/><path id="path120" d="M8.09 7.68c-.18-.1-.22-.3-.29-.47a3.54 3.54 0 01-.31-1.5c.01-.83.27-1.59.78-2.25.58-.76 1.34-1.23 2.26-1.42 1.04-.21 2.02.01 2.89.62.82.58 1.33 1.37 1.53 2.36.05.24.1.48.09.72 0 .21-.04.42-.05.63 0 .04-.03.06-.07.06-.04.03-.07.03-.11 0-.04-.07-.01-.13 0-.2.04-.56.03-1.11-.16-1.65-.32-.89-.88-1.56-1.72-2.01-.41-.22-.84-.35-1.31-.4-.99-.09-1.86.18-2.62.81-.73.6-1.18 1.39-1.29 2.34-.1.87.08 1.68.58 2.4.01.12.01.24-.08.35-.03.01-.06.01-.08-.02-.11-.16-.28-.13-.44-.13-.12-.01-.25.04-.36-.04.18-.05.36-.02.54-.02.14 0 .22-.03.22-.18z" class="st17"/><path id="path122" d="M7.01 8.49c.07-.16.15-.31.24-.46.06-.04.09.02.11.05.19.3.4.58.65.84.03.03.05.07.05.12 0 .16-.03.32-.09.47-.07.02-.11-.04-.16-.08-.3-.28-.56-.6-.8-.94z" fill="#164170"/><path id="path124" d="M7.01 8.49c.15.07.21.23.3.35.2.24.41.46.63.67.06.13.01.25-.04.36-.07.05-.11 0-.16-.04-.33-.26-.61-.58-.85-.93-.07-.1-.14-.16-.27-.14-.04.01-.09 0-.12-.03h-.17c-.02.02-.04.01-.06 0 .11-.06.24-.04.36-.03.19.02.32-.02.38-.21z" class="st13"/><path id="path126" d="M8.04 9.02c-.06-.14-.2-.22-.29-.34-.14-.18-.28-.37-.41-.57-.02-.03-.03-.08-.09-.08.01-.06.04-.11.08-.15h.38c.14.18.26.38.41.55.03.03.04.07.04.11 0 .13-.04.26-.06.39-.01.04-.02.08-.06.09z" class="st19"/><path id="path128" d="M6.73 7.56c.04-.03.04-.07.03-.1-.13-.34-.18-.7-.29-1.05.08-.05.16-.08.26-.07.11.06.09.18.11.28.06.31.16.6.28.88.01.06.02.1.01.15h-.32c-.03-.03-.05-.06-.08-.09z" class="st35"/><path id="path130" d="M6.5 7.65h-.61c-.05-.19-.13-.38-.15-.57.22-.05.39.02.5.23.08.12.18.22.26.34z" class="st37"/><path id="path132" d="M6.03 7.88h.32c.14.16.2.37.3.55.01.03.01.06-.01.08h-.35c-.11-.16-.19-.35-.26-.53-.01-.03-.02-.07 0-.1z" class="st44"/><path id="path134" d="M6.64 8.51c-.04-.15-.14-.28-.2-.43-.03-.07-.06-.13-.08-.2.24-.04.43.01.49.28 0 .04.03.07.05.1-.02.05-.04.09-.06.14-.03.1-.09.14-.2.11z" fill="#123f6a"/><path id="path136" d="M6.03 7.88c.05.17.13.32.21.47.03.05.06.1.05.16-.03 0-.06.02-.09-.02-.07-.1-.17-.12-.29-.12 0-.12-.08-.22-.12-.34-.02-.05-.05-.09-.05-.15h.29z" class="st16"/><path id="path138" d="M6.27 8.72h.06c.06.16.16.29.26.43-.05 0-.1 0-.14.01-.12-.09-.17-.21-.24-.32l.06-.12z" class="st16"/><path id="path140" d="M8.04 9.02c.04-.16.07-.32.09-.49 0-.16-.01-.33.08-.47.04-.11.05-.23.06-.35-.03-.12.02-.23.02-.34.03-.14.06-.29.12-.42.04-.07.09-.14.14-.2.02-.02.03-.03.05-.04.03-.03.06-.06.1-.09.04-.03.08-.05.12-.07.1-.05.19-.11.31-.12.11-.03.22-.04.33-.04h.33c.12-.01.25.01.37.04.2.06.34.17.43.36.07.13.07.28.07.42 0 .06-.03.12-.03.19-.02.13-.05.26-.07.39-.02.08-.04.16-.05.25l-.06.33c-.01.07-.04.14-.06.21-.03.06-.06.13-.1.18-.04.06-.08.11-.13.16-.08.08-.19.14-.28.21-.11.05-.22.08-.33.1-.19.01-.39.01-.58 0-.18 0-.36-.01-.53-.1-.13-.07-.08.07-.1.12 0 .06-.03.11-.03.17 0 .01 0 .03-.01.04a.32.32 0 00-.03.14c-.02.07-.01.14-.06.19-.04.11-.05.21-.06.32-.07.23-.08.24-.26.24a.204.204 0 01-.06-.15c-.01-.11-.04-.23.06-.32.03-.12.06-.24.06-.37.04-.16.07-.32.09-.49z" class="st46"/><path id="path142" d="M14.81 6.43h.11c.05.01.1.02.15.04.1.03.18.09.26.15.08.1.15.21.18.34.01.11.01.21 0 .32-.05.16-.07.33-.09.49-.03.11-.07.21-.21.21-.13.07-.28.02-.42.03-.13 0-.25.01-.38 0h-.71c-.28-.01-.28-.01-.34.27-.03.12-.03.24.02.36.07.13.16.21.31.21h.37c.13-.01.26 0 .39 0 .05 0 .11.01.15.04h.41c.12.02.14.1.12.2a.31.31 0 01-.18.09c-.08.06-.18.04-.27.04h-.57c-.16 0-.32.01-.48 0a.81.81 0 01-.35-.12.873.873 0 01-.2-.23.558.558 0 01-.1-.33c.02-.15.02-.29.05-.43.04-.11.02-.23.06-.34.03-.11.05-.22.07-.33.03-.11.04-.22.07-.33.06-.19.19-.34.33-.47.06-.06.15-.08.22-.13.05-.03.11-.04.16-.06l.15-.03c.06-.01.13-.01.19-.01h.23c.11-.02.22-.04.3.02z" class="st46"/><path id="path144" d="M14.67 9.19h.29c-.02.1-.1.15-.17.21-.4.36-.84.69-1.33.92-.53.25-1.08.41-1.67.47-.86.09-1.69-.03-2.48-.36a4.82 4.82 0 01-1.1-.63.34.34 0 01.03-.2c.01-.01.03-.01.04-.01.25.15.49.33.75.46.5.25 1.01.42 1.56.5.2.03.4.05.6.05.41 0 .82-.04 1.22-.14.67-.17 1.27-.47 1.82-.89.16-.12.3-.26.44-.38z" class="st36"/><path id="path146" d="M7.89 9.88c-.05.1 0 .22-.06.32-.17-.06-.28-.2-.41-.31a5.46 5.46 0 01-.87-1.04c-.03-.04-.06-.07-.05-.13.22-.05.36.04.48.23.23.35.52.64.84.9.02.02.04.02.07.03z" class="st44"/><path id="path148" d="M15.51 7.27v-.32l.03.06c-.02.09.02.18-.03.26z" fill="#194474"/><path id="path150" d="M14.78 7.97h.43c-.1.27-.28.48-.46.7-.05.07-.12.13-.14.23-.18.01-.37.01-.55 0-.02-.06.01-.1.05-.14.24-.23.44-.48.63-.75.01-.01.03-.02.04-.04z" class="st19"/><path id="path152" d="M9.97 13.27c.25.03.49.06.74.08.37.02.73.02 1.1 0 .25-.02.49-.05.74-.08-.16.07-.33.06-.49.08-.43.06-.87.04-1.3.03-.26-.01-.53-.03-.79-.11z" class="st31"/><path id="path154" d="M9.54 13.18c.15.01.29.03.43.09-.15 0-.29-.02-.43-.09z" class="st31"/><path id="path156" d="M12.55 13.27c.14-.05.29-.08.43-.09a.9.9 0 01-.43.09z" class="st31"/><path id="path158" d="M9.31 13.13c.08 0 .16.02.23.06a.38.38 0 01-.23-.06z" class="st31"/><path id="path160" d="M8.99 13.04c.07 0 .14.01.2.06-.07 0-.14-.01-.2-.06z" class="st31"/><path id="path162" d="M8.15 12.72c.06 0 .11.01.14.06-.05 0-.1-.01-.14-.06z" class="st31"/><path id="path164" d="M8.35 12.81c.06 0 .11.01.14.06-.05 0-.1-.02-.14-.06z" class="st31"/><path id="path166" d="M8.58 12.89c.06 0 .11.01.14.06-.05 0-.1-.01-.14-.06z" class="st31"/><path id="path168" d="M6.72 6.34c-.07.05-.16.08-.25.07-.26-.12-.29-.31-.09-.53l.12-.03c.08 0 .15.03.22.07.11.14.11.28 0 .42z" class="st41"/><path id="path170" d="M14.81 6.43h-.29c-.06-.07-.02-.14-.01-.21.11-.9-.08-1.73-.63-2.46-.54-.71-1.25-1.15-2.13-1.28-1.04-.13-1.97.14-2.75.88-.58.55-.92 1.22-1.01 2.02-.07.6.02 1.18.28 1.73.04.08.09.16.06.26 0 .12-.02.23-.06.34-.2-.17-.28-.41-.38-.64-.11-.28-.21-.58-.22-.88-.02-.23-.05-.47-.02-.71.04-.31.08-.62.19-.91.31-.85.85-1.51 1.63-1.97.4-.24.84-.38 1.3-.45.28-.04.57-.04.86-.01a3.616 3.616 0 012.86 1.97c.2.41.33.83.38 1.28.02.13.02.27.01.41-.03.21 0 .43-.07.63z" class="st48"/><path id="path172" d="M8.21 8.06c-.02.16-.05.31-.09.47-.04-.15-.17-.24-.25-.36-.06-.09-.13-.17-.16-.29h.13c.12-.01.24 0 .29.14.01.03.05.03.08.04z" class="st18"/><path id="path174" d="M8.33 7.37c-.01-.14-.1-.24-.15-.36-.13-.36-.22-.72-.24-1.1-.03-.58.07-1.13.34-1.64.51-.98 1.31-1.6 2.42-1.8.19-.03.38-.02.57-.04.37-.03.73.05 1.07.16.58.2 1.07.54 1.47 1.01.39.46.65.99.74 1.59.06.38.08.77-.01 1.16-.01.03 0 .06-.01.09h-.23c-.07-.11-.01-.23 0-.34.1-1.09-.25-1.99-1.08-2.7-.43-.37-.93-.59-1.48-.67-1.29-.17-2.46.38-3.1 1.49-.48.79-.54 1.63-.27 2.5.02.07.06.14.08.22-.04.14-.08.28-.12.43z" class="st49"/><path id="path176" d="M8.45 6.93c-.13-.09-.14-.24-.17-.37-.24-1.01-.08-1.95.59-2.78a2.96 2.96 0 011.99-1.11c.68-.08 1.34.03 1.95.39.83.49 1.32 1.22 1.5 2.15.07.36.06.73-.01 1.09-.01.04-.01.09-.01.13h-.19a.03.03 0 01-.04 0c-.03-.14.02-.28.03-.41.08-.68-.09-1.29-.46-1.85a2.73 2.73 0 00-1.7-1.19c-.89-.2-1.72-.04-2.44.53-.64.51-.99 1.18-1.07 1.98-.04.38 0 .75.13 1.11.02.05.03.1.04.15-.04.06-.09.12-.14.18z" class="st50"/><path id="path178" d="M13.6 9.19h.52c.01.08-.05.11-.1.15-.67.5-1.42.81-2.26.9-.74.08-1.45-.01-2.15-.28-.38-.15-.75-.35-1.08-.61-.07-.05-.14-.1-.23-.11.01-.07.02-.14.03-.23.18.15.38.19.6.18.53.35 1.11.57 1.74.66.82.12 1.6 0 2.35-.36.2-.08.39-.19.58-.3z" class="st34"/><path id="path180" d="M10.55 6.78a.794.794 0 00-.38-.32c-.07-.15-.13-.3-.2-.46 0-.13.03-.26.01-.38.08-.22.13-.44.27-.63.35-.47 1.08-.68 1.67-.29.55.36.74 1.08.41 1.65-.02.04-.05.08-.09.11a.46.46 0 01-.26 0c-.07-.05-.03-.1 0-.15.05-.08.1-.17.13-.26.13-.34.01-.78-.27-1a.904.904 0 00-1.08-.08c-.3.19-.45.47-.43.8.02.37.19.66.56.81.07.03.16.04.17.14-.03.09-.08.18-.16.23a.678.678 0 01-.35-.17z" fill="#26569e"/><path id="path182" d="M13.6 9.19c-.04.08-.12.12-.2.17-.5.28-1.03.48-1.6.55-1 .12-1.94-.09-2.8-.63-.04-.02-.07-.05-.07-.09h.64c.61.31 1.26.43 1.93.39a3.66 3.66 0 001.61-.47c.05-.03.1-.08.17-.04.1.05.21.09.32.12z" class="st18"/><path id="path184" d="M14.06 6.43c.01 0 .02.01.04.01-.05.03-.1.02-.15.03-.12-.03-.07-.12-.06-.19.04-.2.05-.4.05-.6a2.639 2.639 0 00-2.28-2.58c-.92-.14-1.71.13-2.35.8-.46.48-.71 1.07-.72 1.74 0 .3.01.6.1.88.01.04.02.08 0 .11-.01.05-.05.07-.08.1-.12-.16-.14-.36-.17-.55-.09-.58-.01-1.14.24-1.67.23-.47.55-.85.99-1.14.49-.33 1.04-.49 1.62-.48.68.01 1.28.23 1.8.67.57.48.9 1.09.99 1.84.04.3.02.58-.03.87 0 .05 0 .11.01.16z" class="st52"/><path id="path186" d="M8.7 6.64c-.23-.67-.21-1.32.06-1.97.25-.61.69-1.06 1.28-1.36.31-.16.65-.25 1.01-.27.39-.02.75.02 1.12.14.63.22 1.11.61 1.45 1.19.3.51.4 1.06.36 1.64-.01.09-.03.18-.05.27-.01.06-.03.13.02.19l-.15.06c-.09-.02-.05-.09-.04-.14.06-.25.06-.51.06-.76-.01-.6-.22-1.11-.61-1.56-.53-.61-1.22-.92-2.03-.9-.59.02-1.11.22-1.56.6-.48.4-.77.91-.88 1.52-.04.18-.06.38-.04.57-.02.09-.1.19.02.27.02.02.03.03.04.05.02.13.12.25.06.39-.04.02-.08.05-.12.07z" class="st53"/><path id="path188" d="M8.3 9.24c.04-.07.1-.04.14 0 .39.32.82.55 1.29.73.33.12.68.2 1.03.24.71.08 1.39-.01 2.05-.25.44-.16.84-.39 1.22-.68.03-.02.05-.06.08-.09h.23c.02.08-.04.12-.09.16-.63.51-1.34.85-2.14 1-1.34.25-2.55-.07-3.65-.85-.06-.04-.11-.08-.19-.08l.03-.18z" class="st21"/><path id="path190" d="M13.28 9.07c-.26.12-.52.27-.8.36-.53.17-1.08.23-1.64.17-.41-.04-.8-.15-1.17-.32-.04-.02-.1-.03-.1-.09.1-.03.2-.06.31-.09.04-.02.08 0 .13.02.99.36 1.95.31 2.89-.17.07-.03.13-.09.21-.08l.17.2z" class="st17"/><path id="path192" d="M9.8 6.43h-.35c-.02-.02-.04-.04-.04-.07-.02-.1-.08-.15-.19-.16-.03 0-.07-.01-.06-.06.04-.04.1-.02.15-.03-.2-.01-.24-.16-.11-.41.08-.05.08-.05.2-.05-.08 0-.08 0-.16-.04.02-.06.07-.05.11-.06.12.02.18-.04.2-.16.16-.76.75-1.29 1.52-1.38.96-.11 1.91.64 1.92 1.7 0 .21-.03.4-.1.6-.02.05-.03.1-.08.13-.03.01-.06.01-.09 0-.05-.06 0-.12.02-.18.3-.89-.2-1.81-1.1-2.05-.8-.21-1.65.27-1.88 1.06-.01.05-.02.09-.04.13-.08.2-.07.42-.14.63.02-.02.02-.06.05-.07.12.07.21.33.17.47z" fill="#245495"/><path id="path194" d="M10.36 8.58c.02-.07.04-.14.06-.2.02-.1.09-.09.17-.08.15.03.29.05.44.07.45.05.88-.03 1.3-.2.06-.02.11-.06.18-.03.11.13.12.24.04.37-.31.1-.61.22-.93.25-.38.03-.75.02-1.12-.08-.06-.03-.12-.04-.14-.1z" class="st52"/><path id="path196" d="M13.1 8.87c-.38.24-.79.38-1.23.46-.59.11-1.16.05-1.73-.12a2.03 2.03 0 01-.26-.11c.09-.07.18-.13.27-.2.17.01.33.05.43.21.06.05.14.04.21.04h1.05c.34.01.61-.12.81-.39.03-.03.05-.07.08-.1.1-.04.18-.12.29-.11-.03.12.05.21.08.32z" fill="#1d487f"/><path id="path198" d="M12.5 8.14c-.25.08-.49.19-.75.24-.39.07-.78.05-1.17-.04-.07-.02-.12-.03-.16.04l.06-.35c.06-.1.14-.05.22-.03.37.09.74.1 1.11 0 .13-.03.24-.12.39-.1.2.02.29.09.3.24z" class="st56"/><path id="path200" d="M14.06 6.43c-.06 0-.03-.04-.03-.07.02-.22.07-.43.06-.66-.02-.66-.24-1.25-.65-1.76-.48-.58-1.1-.91-1.84-1.01-.77-.1-1.48.1-2.09.59-.58.47-.94 1.07-1.04 1.81-.07.49-.03.95.15 1.41-.01 0-.02.01-.03.02-.13-.16-.15-.36-.18-.55-.1-.6-.02-1.18.25-1.73.32-.65.81-1.13 1.49-1.4.8-.32 1.61-.3 2.39.08.83.41 1.34 1.1 1.55 2 .09.42.07.85-.03 1.27z" class="st52"/><path id="path202" d="M8.26 9.59h-.02c0-.05 0-.1.03-.14.08-.05.12.01.18.05.74.54 1.56.86 2.47.92 1.28.08 2.41-.29 3.4-1.12.05-.04.1-.08.15-.11h.12c.04.09-.04.12-.08.16-.28.24-.58.46-.9.64-.57.32-1.19.51-1.84.58-.35.03-.71.03-1.07-.01a4.89 4.89 0 01-1.25-.32c-.35-.14-.68-.32-.98-.54-.08-.05-.12-.11-.21-.11z" class="st57"/><path id="path204" d="M10.12 8.29c0 .12-.03.23-.11.32-.16-.13-.36-.2-.53-.32-.28-.2-.52-.43-.72-.7a.376.376 0 00-.14-.14c.02-.15.03-.31.14-.44.08-.02.1.04.13.09.27.48.66.84 1.16 1.09.03.02.09.03.07.1z" class="st50"/><path id="path206" d="M14.46 9.19c-.1.17-.27.27-.42.38-.63.46-1.33.75-2.1.85-.86.11-1.7.04-2.5-.31-.37-.16-.73-.35-1.06-.61-.03-.03-.07-.04-.11-.05v-.03c.07-.11.13 0 .17.03.22.16.45.32.7.44.55.27 1.13.45 1.75.5 1.28.1 2.39-.3 3.39-1.08.04-.03.05-.07.07-.11.04-.01.08-.01.11-.01z" class="st35"/><path id="path208" d="M9.83 8.78c-.15.14-.34.12-.52.11-.24-.17-.48-.34-.69-.56a.213.213 0 00-.15-.07c.03-.17.05-.33.09-.49.07-.05.12.01.15.05.28.34.61.61.99.82.06.03.14.05.13.14z" class="st48"/><path id="path210" d="M10.23 7.68c-.04.15-.02.3-.08.44-.05-.09-.14-.14-.22-.2-.37-.22-.67-.52-.89-.9-.04-.06-.1-.12-.05-.21.05-.04.1-.06.17-.06.04-.02.08-.01.13-.01.05.01.07.04.09.08.19.35.46.61.8.81.02.01.04.03.05.05z" class="st58"/><path id="path212" d="M8.99 6.81c.07.2.18.38.32.54.21.25.46.46.75.62.07.04.1.08.09.16 0 .06 0 .12-.03.17-.1-.06-.19-.12-.29-.18-.42-.24-.73-.57-.97-.98-.03-.05-.05-.1-.11-.13.06-.09.13-.17.24-.2z" class="st53"/><path id="path214" d="M10.36 8.58c.41.15.83.17 1.26.12.28-.03.54-.11.8-.21.03-.01.07-.05.1 0 .04.08-.01.14-.05.2-.1.13-.24.24-.41.24-.45.02-.89.02-1.34 0-.14-.09-.32-.08-.46-.17.03-.07.07-.12.1-.18z" fill="#1d4b85"/><path id="path216" d="M9.83 8.78c-.13-.15-.31-.21-.46-.31-.27-.18-.48-.4-.68-.63-.03-.04-.07-.08-.13-.07.02-.11.04-.22.06-.32.05-.04.08-.02.11.03.3.44.69.79 1.18 1.02.05.02.09.05.1.11-.04.08-.09.15-.18.17z" class="st49"/><path id="path218" d="M10.23 7.68c-.38-.16-.65-.45-.86-.8-.02-.04-.04-.08-.06-.13.13-.04.26-.01.4-.02.03 0 .05.02.07.04.13.2.3.36.5.49.01.01.02.02.02.03-.01.14-.03.27-.07.39z" fill="#215392"/><path id="path220" d="M8.47 8.26c.03-.02.05-.08.09-.03.22.24.5.42.74.63.01.01 0 .02.01.03h-.34c-.44.01-.6-.21-.5-.63z" fill="#1b477b"/><path id="path222" d="M12.21 7.94c-.17-.03-.31.09-.47.12-.38.08-.75.06-1.12-.04-.05-.01-.1-.02-.15.01.01-.08.03-.16.04-.23.05-.03.1-.03.15-.01.17.05.34.06.51.07.28.04.57.01.85.02.07-.01.15-.03.19.06z" fill="#20528f"/><path id="path224" d="M9.8 6.43c-.04-.16-.07-.32-.17-.46a.245.245 0 01.04-.26c.06-.08.16-.08.25-.05.1.02.08.11.08.19 0 .06-.08.12 0 .18.08.14.16.27.17.44-.12-.02-.25-.03-.37-.04z" fill="#25559a"/><path id="path226" d="M10.3 7.3c-.23-.09-.4-.27-.53-.47-.05-.07-.1-.08-.17-.08H9.16c.28-.04.57-.04.84 0 .26.04.37.28.3.55z" class="st64"/><path id="path228" d="M11.16 7.88c-.23.03-.44-.05-.65-.09.03-.13.05-.27.08-.4.06-.1.13-.05.2-.02.02.01.03.03.04.05.05.16.14.29.28.39.03.01.06.03.05.07z" class="st65"/><path id="path230" d="M9.16 6.15c.01 0 .03.02.04.02.22.03.22.03.25.26l-.35.03c-.01-.01-.02-.02-.02-.04-.03-.16-.12-.23-.29-.22-.02 0-.04-.02-.06-.03-.01 0-.02-.01-.03-.02.04-.05.09-.05.14-.04.1.01.17-.03.18-.13 0-.02.02-.03.04-.04h.04c.05.06.04.14.06.21z" fill="#235391"/><path id="path232" d="M8.73 6.17h.07c.28 0 .28.01.3.28-.09.05-.19.08-.28.12-.02-.13-.1-.26-.09-.4z" class="st58"/><path id="path234" d="M10.26 8.75c.15.03.31.04.43.14-.09.05-.13.14-.18.23-.02-.1-.09-.14-.19-.16-.06-.01-.12-.05-.19-.07.05-.04.09-.09.13-.14z" class="st49"/><path id="path236" d="M10.55 6.78c.11.05.23.1.34.14.03.09-.01.16-.07.22-.08 0-.15.02-.21.07a.92.92 0 00-.06-.43z" class="st67"/><path id="path238" d="M10.62 7.21c.02-.14.11-.12.2-.08.02.03.02.06.02.09-.02.06 0 .13-.05.17-.07-.01-.13-.05-.2 0l.03-.18z" fill="#255697"/><path id="path240" d="M13.6 6.64c-.25.2-.36.48-.41.79-.07-.01-.11.05-.15.09-.12.12-.24.23-.38.32-.1-.03-.2-.08-.27-.16 0-.1.08-.12.14-.17.59-.44.9-1.04.9-1.76 0-.78-.35-1.41-1.01-1.83a2.162 2.162 0 00-3.31 1.54c-.01.06-.01.13-.08.18-.1.03-.19.03-.29 0 0 0-.02-.01-.01-.02.1-.13.09-.3.12-.45a2.48 2.48 0 012.03-1.88c1.32-.21 2.6.66 2.83 2.1.05.31.04.63-.05.95-.03.1-.07.19-.06.3z" fill="#204f8e"/><path id="path242" d="M13.6 6.64c-.07-.01-.05-.05-.04-.09.09-.29.13-.59.12-.89-.01-.56-.22-1.05-.57-1.48a2.29 2.29 0 00-1.43-.83c-.73-.13-1.38.05-1.96.5-.5.39-.77.91-.88 1.52-.01.09.05.22-.11.25.04.08.15-.01.19.08.02.05.02.09-.01.13a.47.47 0 01-.24.05c-.04-.24 0-.48.04-.71.1-.49.34-.91.68-1.26.42-.42.92-.68 1.52-.75.52-.07 1.02 0 1.48.24.59.3 1.03.75 1.28 1.37.22.54.22 1.09.11 1.66-.01.04-.03.07.01.1-.05.05-.14.04-.19.11z" class="st56"/><path id="path244" d="M14.81 6.72c.22 0 .35.11.41.31.02.08.02.16 0 .24-.02.1-.04.2-.05.3-.01.08-.04.11-.12.11-.21 0-.41-.01-.62-.01-.03-.04-.02-.07 0-.11.15-.26.25-.53.35-.81l.03-.03z" fill="#18467b"/><path id="path246" d="M8.26 9.59c.03-.09.07-.02.09 0 .52.39 1.1.67 1.73.83.37.09.74.13 1.12.14.59.01 1.16-.09 1.71-.29.52-.19.99-.46 1.42-.82.09-.08.21-.13.25-.25h.09c-.08.18-.25.28-.39.39-.61.47-1.3.81-2.06.95-.52.1-1.03.12-1.56.05-.55-.07-1.06-.23-1.55-.46-.31-.15-.59-.33-.85-.54z" class="st57"/><path id="path248" d="M14.81 6.72c-.04.3-.18.55-.31.81-.02.05-.06.09-.07.14H14c-.04-.04-.02-.08 0-.12.16-.25.29-.51.39-.78a.12.12 0 01.05-.05c.12-.01.25-.01.37 0z" class="st48"/><path id="path250" d="M14.78 7.97c-.11.22-.27.4-.43.59-.1.11-.23.19-.29.34-.14.01-.27.02-.41-.01-.08-.05-.04-.1 0-.14.28-.23.52-.5.75-.78h.38z" class="st18"/><path id="path252" d="M13.65 7.68c-.28.01-.22.02-.18-.21.01-.08.03-.15.04-.23.06-.3.32-.52.64-.52.02.02.03.05.02.08-.11.33-.26.64-.52.88z" class="st50"/><path id="path254" d="M14.41 7.97c-.07.17-.2.3-.33.43-.13.12-.24.26-.39.36-.04.03-.08.07-.04.13a.365.365 0 01-.3-.22c.19-.17.38-.34.56-.53.06-.06.1-.13.17-.17h.33z" class="st17"/><path id="path256" d="M13.65 7.68c.1-.15.2-.3.29-.46.09-.15.17-.32.2-.5h.29c-.08.28-.21.54-.36.79-.03.05-.08.1-.07.17h-.35z" class="st49"/><path id="path258" d="M14.09 7.97c-.21.27-.44.52-.73.69a.424.424 0 01-.02-.38c.11-.12.21-.23.35-.31h.4z" class="st48"/><path id="path260" d="M12.67 7.83c.13-.17.32-.29.46-.44.04-.04.05.01.06.04 0 .12-.03.23-.06.34-.1.09-.19.21-.35.23-.07-.04-.11-.09-.11-.17z" fill="#1f4e8a"/><path id="path262" d="M13.01 8.55c-.09.04-.16.1-.26.11-.02-.16.06-.3.08-.46.07-.05.13-.14.24-.09l-.06.44z" fill="#1d4b84"/><path id="path264" d="M13.07 8.11c-.09-.01-.14.09-.23.09-.07-.06-.09-.14-.07-.23.15-.02.22-.17.35-.21-.03.12 0 .24-.05.35z" fill="#204d87"/><path id="path266" d="M13.68 7.97c-.1.12-.21.24-.35.31.06-.4-.01-.3.35-.31z" fill="#204b83"/><path id="path268" d="M15.22 7.28v-.24c.04.08.03.16 0 .24z" fill="#1c477a"/><path id="path270" d="M12.78 7.97c.02.08.04.15.07.23 0 .16-.03.31-.1.46-.22.37-.55.55-.98.53-.35-.02-.7 0-1.06 0-.07 0-.14 0-.18-.06-.03-.14.03-.21.17-.23.44 0 .88.01 1.32 0 .23 0 .43-.18.5-.41.07-.12.03-.24-.03-.35-.05-.14-.15-.19-.29-.2-.24-.04-.48 0-.72-.02-.11-.01-.22.01-.32-.04-.18-.11-.33-.24-.36-.46a.67.67 0 010-.2c0-.03.01-.06.01-.09.03-.07.05-.14.08-.2.05-.07.1-.13.15-.2.15-.25.39-.3.65-.33.09-.01.19-.03.28.04h.29c.07-.05.15-.04.23-.04.08 0 .16-.02.23.04h.09c.16-.05.22 0 .2.19-.03.07-.08.11-.15.13-.11.02-.22.01-.34.01h-.36c-.16-.01-.33 0-.49 0-.23 0-.4.1-.5.31-.05.11-.08.23-.01.34.11.2.3.21.5.2.18 0 .36-.01.53 0 .08 0 .16 0 .21.07.09.04.18.09.26.15.04.03.08.08.12.13z" class="st46"/><path id="path272" d="M11.97 6.43c-.09 0-.18.01-.27.01-.26 0-.47.12-.65.28-.01-.07-.07-.07-.11-.09-.41-.15-.63-.47-.63-.88a.951.951 0 011.2-.93c.61.16.93.89.54 1.47-.04.05-.07.09-.08.14z" fill="#2658a1"/><path id="path274" d="M12.49 6.43h-.23c.2-.36.28-.72.12-1.12-.17-.43-.49-.69-.95-.76-.66-.1-1.24.35-1.36.93-.01.05 0 .14-.09.15-.07.04-.16.02-.25.01-.04 0-.07-.03-.05-.08.13 0 .17-.08.2-.2.16-.59.73-1.07 1.41-1.06.66.01 1.25.51 1.37 1.16.06.35.03.68-.17.97z" fill="#25559c"/><path id="path276" d="M9.71 5.56c-.02.03-.04.06.03.06.09 0 .17 0 .26.01.07.07.04.16.03.25-.01.05-.01.1-.02.16-.02.03-.04.06-.07.13-.03-.13.02-.22.03-.32.01-.07.05-.17-.07-.18-.11 0-.22-.02-.24.13l-.03.17c-.02.06-.04.12-.05.18-.01 0-.02-.01-.04-.01.04-.25.07-.51.14-.76.1.05.08.11.03.18z" fill="#f2f3f8"/><path id="path278" d="M8.9 5.68c-.05 0-.09 0-.14-.01-.04 0-.06-.01-.04-.06.11 0 .21.01.32.01.09.09.1.16.03.31 0 .02-.01.03-.01.03.01.17-.08.21-.23.19-.04-.01-.08 0-.13 0-.14-.08-.09-.17-.03-.27.07-.06.15-.04.23-.06.1-.04.1-.09 0-.14z" fill="#eeeff5"/><path id="path280" d="M9.07 5.94c-.01-.1.06-.21-.03-.31.08-1.02.76-1.83 1.74-2.05.69-.15 1.32 0 1.88.45.43.35.68.8.78 1.33.11.64-.04 1.21-.43 1.73-.14.19-.31.35-.51.48-.04.03-.09.04-.09.1-.26-.05-.52-.01-.78-.03 0-.06.06-.08.1-.09.46-.13.82-.39 1.09-.79.01-.02.04-.03.05-.05l.12-.09c.01-.33.16-.63.14-.96-.04-.67-.34-1.18-.9-1.53-.5-.31-1.04-.37-1.6-.16-.63.24-1.02.7-1.19 1.34-.02.1-.02.2-.07.28-.04.01-.09-.01-.12.03 0 .04-.03.06-.05.08-.06.07-.03.18-.1.24h-.03z" class="st65"/><path id="path282" d="M9.37 5.59c.04-.6.33-1.06.81-1.41.34-.25.74-.36 1.15-.35.91.04 1.66.67 1.81 1.57.06.35.04.69-.1 1.02-.04.07.01.15-.05.22.01-.18.01-.19-.18-.21.24-.57.2-1.13-.15-1.65-.29-.43-.71-.67-1.23-.73-.91-.1-1.7.54-1.84 1.37-.02.15-.09.2-.22.17z" class="st64"/><path id="path284" d="M9.71 5.56c-.02-.06.05-.13-.03-.17.08-.25.18-.49.36-.69.26-.31.59-.49.98-.55.41-.07.8.03 1.14.26.65.44.89 1.24.59 1.96-.01.02-.01.05-.02.07h-.23c0-.05.01-.08.03-.12.4-.9-.25-1.83-1.09-1.94-.7-.09-1.42.42-1.55 1.12-.02.13-.09.11-.18.06z" class="st80"/><path id="path286" d="M9.1 5.94c.04-.08 0-.19.09-.26.03-.01.04 0 .03.03 0 .01-.01.02-.01.03-.1.31-.09.32.23.36.02 0 .04 0 .04.05h-.32c-.07-.06-.07-.13-.06-.21z" fill="#ecedf4"/><path id="path288" d="M9.22 5.71l-.03-.03.06-.06h.35c-.14.1-.28.01-.38.09z" fill="#f4f5f8"/><path id="path290" d="M10.81 7.22v.2c-.01-.01-.02-.02-.02-.03 0-.06-.02-.12.02-.17z" class="st67"/><path id="path292" d="M8.9 5.68c.07-.01.13 0 .13.08 0 .09-.07.06-.13.06v-.14z" fill="#22528e"/><path id="path294" d="M12.87 6.72c-.14.29-.37.48-.63.65-.19.13-.42.16-.62.27-.21.02-.4 0-.5-.22-.02-.13.08-.1.14-.1.22 0 .44-.05.64-.14.21-.09.38-.21.53-.39.02-.03.05-.05.09-.07h.35z" class="st64"/><path id="path296" d="M12.52 6.72c-.21.36-.55.51-.93.61-.11.03-.23.03-.34.03-.05 0-.11-.01-.12.06a.318.318 0 01.01-.35c.08-.03.17-.01.26-.02.29-.03.53-.16.75-.33h.37z" class="st80"/><path id="path298" d="M12.15 6.72c-.15.21-.38.29-.62.34-.13.03-.26.07-.39 0 .09-.22.25-.33.48-.35.17 0 .35.01.53.01z" fill="#26569b"/><path id="path300" d="M11.89 5.75c0 .36-.27.62-.63.63a.625.625 0 01-.63-.62c-.01-.39.3-.65.65-.65.29-.02.63.29.61.64z" fill="#295ba5"/><path id="path302" d="M8.86 6.09c-.09 0-.19.02-.18-.09.01-.12.12-.12.21-.11.04 0 .11-.04.11.05 0 .11-.03.19-.14.15z" fill="#25538f"/><path id="path304" d="M11.57 5.75c0 .19-.12.3-.32.3-.17 0-.31-.14-.31-.31-.01-.17.15-.33.34-.32.16 0 .29.14.29.33z" fill="#285ba6"/></g></g></g></svg>